<?xml version="1.0" encoding="UTF-8"?>
<svg xmlns="http://www.w3.org/2000/svg" viewBox="0 0 780.93 565.04">
  <defs>
    <style>
      .cls-1 {
        fill: #000;
      }

      .cls-1, .cls-2 {
        stroke-width: 0px;
      }

      .cls-3 {
        fill: none;
        stroke: #000;
        stroke-miterlimit: 10;
        stroke-width: .5px;
      }

      .cls-2 {
        fill: #ff5d8f;
      }
    </style>
  </defs>
  <g id="Bown_Logo" data-name="Bown Logo">
    <path class="cls-2" d="M248.26,358.43c3.46,24.35.96,49.59-4.01,72.96-6.65,31.3-18.55,65.31-37.31,91.76-8.55,12.04-26.06,38.8-44.63,37.45-32.22-.64-72.52-10.67-93.22-36.85-8.08-30.82,20.31-62.69-9.51-85.04-19.18-14.38-56.47-27.37-58.4-55.49-1.97-28.92,26.07-44.24,36.63-67.67,11.01-24.41-1.92-42.8-14.61-63.49C12.4,234.46-3.91,209.66,1.23,187.68c6.08-26.01,40.7-34.44,43.6-61.43,2.99-27.74-19.25-56.49-15.05-83.65,2.19-14.15,14.62-18.33,26.41-22.33C73.77,14.29,90.01,5.85,107.84.6c18.62-2.19,40.28,6.22,56.72,13.99,10.65,4.96,19.39,13.21,25.46,23.08,8.99,14.64,15.84,31.02,23.03,46.72,12.75,27.85,24.2,55.69,29.43,85.25,4.15,23.49,5.84,48.92.82,72.73-4.04,19.15-10.72,36.99-19.49,54.8,11.83,19.16,21.24,38.77,24.45,61.26ZM159.64,167.63c3.3-16.29-1.56-34.07-9.38-48.6-4.87-9.04-13.02-16.34-23.12-19.05-.91-.25-1.37-.37-2.29-.61,3.87,19.03,10.59,40.09,5.43,59.45-5.01,18.79-15.49,35.72-20.42,54.9,1.16.24,1.74.37,2.9.61,10.19,2.41,21.2.04,28.15-7.9,8.84-10.12,16.08-25.7,18.73-38.8ZM146.56,396.23c5.84-16.31,14.78-35.21,10.95-52.68-2.45-11.17-12.14-19.43-23.22-22.34-.65-.18-.98-.27-1.64-.45-1.71,40.04-47.61,84.54-23.74,124.52,1.18.3,1.78.45,2.96.74,11.29,2.81,17.57,1.18,20.73-5.67,6.17-13.39,8.88-29.9,13.96-44.12Z"/>
    <path class="cls-2" d="M310.94,98.89c28.73,16.37,48.88,48.65,61.38,79.21,15.05,36.78,19.24,76.72,19,116.03-.23,39.35-5.95,79.89-21.85,116.29-13.9,31.81-35.97,63.14-65.15,80.94-21.6,13.18-38.21,13.46-41.75-13.16-2.78-20.88,1.68-44.31,4.01-66.24,4.16-38.98,7.07-78.28,7.22-117.14.22-58.77-16.01-124.12-7.74-180.17,4.2-28.47,21.64-28.99,44.87-15.76ZM329.92,343.02c3.55-1.26,6.84-6.56,9.7-15.45,3.38-10.52,4.23-21.65,4.6-32.44.4-11.58-.56-23.86-3.59-35.25-2.42-9.09-5.65-14.23-9.28-15.04-3.81-.85-6.65,2.96-8.47,12.09-2.52,12.67-2.53,25.89-2.76,38.81-.21,11.93-.04,24.19,2.12,35.93,1.66,9.03,4.23,12.58,7.68,11.35Z"/>
    <path class="cls-2" d="M474.77,308.99c-3.86,28.96-7.62,57.93-11.32,86.91-9.4,6.23-18.81,12.46-28.21,18.69-11.53-88.1-20-176.53-27.14-265.08,11.29,6.96,22.59,13.92,33.88,20.89,2.84,26.59,5.86,53.16,9.12,79.7,3.04-22.79,6.12-45.58,9.28-68.35,9.5,5.85,14.24,8.78,23.74,14.64,3.73,20.51,7.66,40.98,12.13,61.35,2.17-16.6,4.36-33.19,6.65-49.77,11.14,6.87,22.13,14.1,33.68,20.27-7.46,43.6-12.84,87.59-18.46,131.45-9.4,6.23-18.8,12.46-28.21,18.7-5.73-22.98-10.58-46.14-15.14-69.38Z"/>
    <path class="cls-2" d="M656.33,307.23c-.08,13.67-.6,27.35-1.63,40.98-31.19-3.4-64.27-10.47-95.57-8.45-3.52-37.18-7.03-74.36-10.55-111.54,24.18-2.21,48.26-6.89,72.25-10.65,20.57,11.7,40.1,24.93,59.13,38.97-1.13-15.83-2.68-31.71-5.35-47.36,16.86-2.63,33.73-5.26,50.58-7.92,14.26-2.26,35.14-10.15,48.81-4.36,10.03,53.88,9.15,107.68-2.52,161.22-15.38,8.64-53.44-2.04-70.39-3.92-13.82-16.9-28.66-32.26-44.77-46.96Z"/>
  </g>
  <g id="Bouquet">
    <g>
      <path class="cls-1" d="M152.98,499.21c-.9,4.64-3.03,15.02-3.64,22.07-.05.52-.22,2.61-1.69,4.29-1.27,1.45-2.99,2.04-4,1.87-.3-.05-.61-.15-.82-.37-.34-.36-.34-.92-.32-1.41.57-10.27,3.78-20.18,7.03-29.94-5.18,5.07-11.12,9.37-17.56,12.71-2.57,1.33-5.28,2.54-8.17,2.76-1.37.11-2.81-.03-3.98-.75-1.86-1.15-2.6-3.62-2.18-5.77.42-2.14,1.81-3.98,3.43-5.46,2.91-2.67,6.61-4.38,10.42-5.44s7.76-1.51,11.69-1.94c1.65-.19,3.32-.37,4.98-.37.66,0,1.32.03,1.98.1,0,0-1.26-.77-1.27-.78-5.83-.76-11.8-1.71-16.89-4.66-1.08-.63-2.15-1.37-2.86-2.41-1.31-1.91-1.12-4.72.45-6.43,1.16-1.27,2.91-1.9,4.63-1.94s3.42.45,5,1.12c3.94,1.68,7.36,4.55,9.66,8.16.43,1.04.96,2.05,1.59,2.98-.44-1.04-.97-2.03-1.59-2.98-1.64-4.02-1.77-8.68-.1-12.7.21-.52.47-1.05.94-1.34.43-.28.97-.31,1.47-.3.65.01,1.3.07,1.9.3.93.36,1.68,1.11,2.23,1.95,1.5,2.3,1.61,5.23,1.29,7.96-.33,2.82-1.05,5.6-.91,8.44,5.11.36,10.22.73,15.33,1.09,2.2.16,4.42.32,6.56.87.84.21,1.66.48,2.47.77.31.1.63.22.9.41.32.23.55.56.77.89.44.63.89,1.31.95,2.07.04.5-.1,1.01-.34,1.45-.89,1.69-2.97,2.34-4.87,2.63-2.68.42-5.41.44-8.11.21-3.26-.27-6.5-.89-9.63-1.86,2.88,3.85,4.12,8.88,3.33,13.62-.18,1.15-.5,2.31-1.18,3.26-.67.95-1.76,1.66-2.93,1.63-1.83-.05-3.13-1.88-3.66-2.66-2.79-4.05-2.67-10.61-2.3-14.1ZM152.99,499.18c.29-1.47.45-2.36.4-2.36s-.25.92-.4,2.36Z"/>
      <g>
        <path class="cls-3" d="M148.87,484.62c-2.3-3.61-5.72-6.48-9.66-8.16-1.58-.67-3.28-1.16-5-1.12s-3.47.67-4.63,1.94c-1.57,1.71-1.76,4.52-.45,6.43.71,1.04,1.78,1.78,2.86,2.41,5.09,2.95,11.06,3.9,16.89,4.66.01.01,1.27.78,1.27.78-.66-.07-1.32-.1-1.98-.1-1.66,0-3.33.18-4.98.37-3.93.43-7.88.88-11.69,1.94s-7.51,2.77-10.42,5.44c-1.62,1.48-3.01,3.32-3.43,5.46-.42,2.15.32,4.62,2.18,5.77,1.17.72,2.61.86,3.98.75,2.89-.22,5.6-1.43,8.17-2.76,6.44-3.34,12.38-7.64,17.56-12.71-3.25,9.76-6.46,19.67-7.03,29.94-.02.49-.02,1.05.32,1.41.21.22.52.32.82.37,1.01.17,2.73-.42,4-1.87,1.47-1.68,1.64-3.77,1.69-4.29.61-7.05,2.74-17.43,3.64-22.07"/>
        <path class="cls-3" d="M148.87,484.62c.43,1.04.96,2.05,1.59,2.98-.44-1.04-.97-2.03-1.59-2.98Z"/>
        <path class="cls-3" d="M152.98,499.21c-.37,3.49-.49,10.05,2.3,14.1.53.78,1.83,2.61,3.66,2.66,1.17.03,2.26-.68,2.93-1.63.68-.95,1-2.11,1.18-3.26.79-4.74-.45-9.77-3.33-13.62,3.13.97,6.37,1.59,9.63,1.86,2.7.23,5.43.21,8.11-.21,1.9-.29,3.98-.94,4.87-2.63.24-.44.38-.95.34-1.45-.06-.76-.51-1.44-.95-2.07-.22-.33-.45-.66-.77-.89-.27-.19-.59-.31-.9-.41-.81-.29-1.63-.56-2.47-.77-2.14-.55-4.36-.71-6.56-.87-5.11-.36-10.22-.73-15.33-1.09-.14-2.84.58-5.62.91-8.44.32-2.73.21-5.66-1.29-7.96-.55-.84-1.3-1.59-2.23-1.95-.6-.23-1.25-.29-1.9-.3-.5,0-1.04.02-1.47.3-.47.29-.73.82-.94,1.34-1.67,4.02-1.54,8.68.1,12.7"/>
        <path class="cls-3" d="M152.98,499.21s.01-.02.01-.03"/>
        <path class="cls-3" d="M152.99,499.18c.29-1.47.45-2.36.4-2.36s-.25.92-.4,2.36Z"/>
      </g>
    </g>
    <g>
      <path class="cls-1" d="M99.85,247.94c-.65,1.47-1.15,3-1.49,4.56.63-1.48,1.12-3,1.49-4.56ZM99.86,247.91c2.49-5.59,7.09-10.26,12.79-12.49.73-.29,1.52-.55,2.29-.35.69.17,1.25.68,1.73,1.2.62.66,1.19,1.39,1.55,2.23.55,1.31.53,2.79.21,4.17-.87,3.78-3.75,6.77-6.83,9.12-3.19,2.42-6.73,4.41-9.47,7.33,4.63,5.56,9.27,11.12,13.9,16.67,2,2.4,4,4.81,5.54,7.52.6,1.06,1.13,2.16,1.64,3.26.2.43.4.86.46,1.32.08.56-.03,1.11-.14,1.66-.21,1.06-.46,2.19-1.19,3-.47.53-1.11.88-1.8,1.08-2.6.74-5.3-.73-7.45-2.38-3.05-2.31-5.74-5.07-8.16-8.04-2.92-3.59-5.45-7.49-7.53-11.62-1.1,6.69-5.01,12.89-10.59,16.73-1.36.93-2.85,1.75-4.47,1.99-1.63.24-3.42-.17-4.53-1.39-1.75-1.91-1.16-5.03-.89-6.33,1.38-6.78,8.14-13.07,12.08-16.14,1.79-1.16,2.87-1.87,2.85-1.94-.05-.06-1.2.66-2.85,1.94-5.62,3.63-18.24,11.63-26.01,17.9-.57.47-2.87,2.34-6.01,2.49-2.72.14-5-1.04-5.82-2.23-.25-.36-.45-.78-.43-1.2.03-.7.59-1.25,1.12-1.7,11-9.48,24.23-15.91,37.33-22.18-10.23-.3-20.42-2.14-30.13-5.41-3.87-1.31-7.75-2.89-10.81-5.61-1.45-1.28-2.72-2.89-3.13-4.78-.65-3.02,1.14-6.2,3.73-7.86,2.6-1.67,5.83-2.06,8.91-1.87,5.57.35,10.93,2.44,15.74,5.28,4.81,2.83,9.14,6.4,13.43,9.98,2.52,2.1,5.07,4.23,7.09,6.81,0,0-.45-2.03-.46-2.05-4.94-6.68-9.82-13.68-11.79-21.74-.42-1.72-.71-3.53-.35-5.27.66-3.21,3.7-5.76,6.97-5.85,2.44-.06,4.79,1.11,6.51,2.82,1.73,1.71,2.89,3.92,3.76,6.18,2.14,5.63,2.57,11.91,1.19,17.77Z"/>
      <g>
        <path class="cls-3" d="M99.86,247.91c1.38-5.85.95-12.13-1.19-17.77-.87-2.27-2.03-4.48-3.76-6.18-1.72-1.71-4.08-2.87-6.51-2.82-3.27.09-6.31,2.64-6.97,5.85-.36,1.73-.07,3.55.35,5.27,1.98,8.06,6.86,15.06,11.79,21.74,0,.02.46,2.05.46,2.05-2.02-2.58-4.57-4.71-7.09-6.81-4.29-3.57-8.62-7.15-13.43-9.98-4.81-2.84-10.17-4.93-15.74-5.28-3.08-.19-6.31.19-8.91,1.87-2.59,1.66-4.38,4.84-3.73,7.86.41,1.9,1.69,3.5,3.13,4.78,3.06,2.71,6.94,4.3,10.81,5.61,9.71,3.27,19.9,5.11,30.13,5.41-13.11,6.27-26.34,12.7-37.33,22.18-.53.46-1.09,1.01-1.12,1.7-.02.43.17.84.43,1.2.82,1.19,3.09,2.37,5.82,2.23,3.14-.15,5.44-2.02,6.01-2.49,7.76-6.27,20.39-14.27,26.01-17.9"/>
        <path class="cls-3" d="M99.85,247.94c-.65,1.47-1.15,3-1.49,4.56.63-1.48,1.12-3,1.49-4.56Z"/>
        <path class="cls-3" d="M99.85,247.94s0-.02,0-.02"/>
        <path class="cls-3" d="M89,266.45c-3.94,3.06-10.7,9.35-12.08,16.14-.27,1.3-.87,4.42.89,6.33,1.11,1.21,2.9,1.63,4.53,1.39,1.62-.24,3.11-1.06,4.47-1.99,5.59-3.85,9.49-10.04,10.59-16.73,2.08,4.12,4.61,8.03,7.53,11.62,2.42,2.97,5.12,5.73,8.16,8.04,2.15,1.65,4.85,3.12,7.45,2.38.68-.2,1.33-.55,1.8-1.08.73-.81.98-1.94,1.19-3,.11-.55.22-1.1.14-1.66-.06-.46-.26-.89-.46-1.32-.52-1.1-1.04-2.21-1.64-3.26-1.54-2.71-3.55-5.12-5.54-7.52-4.63-5.55-9.27-11.11-13.9-16.67,2.75-2.91,6.29-4.9,9.47-7.33,3.08-2.35,5.96-5.34,6.83-9.12.32-1.38.34-2.86-.21-4.17-.36-.84-.93-1.56-1.55-2.23-.49-.52-1.04-1.03-1.73-1.2-.77-.19-1.56.06-2.29.35-5.7,2.23-10.31,6.9-12.79,12.49"/>
        <path class="cls-3" d="M89,266.45c1.79-1.16,2.87-1.87,2.85-1.94-.05-.06-1.2.66-2.85,1.94Z"/>
      </g>
    </g>
    <g>
      <path class="cls-1" d="M203.89,212.86c3.72-1.49,7.46-2.92,11.22-4.28,4.95-1.79,10.34-3.48,15.37-1.94,1.22.38,2.43.97,3.22,1.98.79,1,1.07,2.49.41,3.58-.61,1-1.81,1.45-2.92,1.82-9.77,3.22-19.86,5.48-30.08,6.71,3.94,1.97,7.49,4.64,10.76,7.6,2.45,2.21,4.85,4.77,5.52,8,.66,3.23-1.16,7.17-4.42,7.64-2.14.3-4.18-.88-5.92-2.15-4.4-3.23-8.14-7.36-10.91-12.06-1.2-2.03-2.24-4.27-2.08-6.67-5.54,7.04-10.76,14.34-15.61,21.87-.81,1.26-1.63,2.55-2.77,3.52-1.95,1.66-4.68,2.22-7.23,1.91-2.54-.31-4.93-1.41-7.13-2.73-1.83-1.11-3.68-2.54-4.24-4.61-.79-2.95,1.31-5.82,3.27-8.15,1.91-2.26,3.85-4.56,6.29-6.23,1.81-1.24,3.84-2.11,5.87-2.95,5.73-2.39,11.51-4.67,17.33-6.85-10.42-.49-21.12-1.24-30.33-6.07-1.81-.96-3.58-2.1-4.82-3.73-1.23-1.63-1.85-3.85-1.17-5.78.87-2.46,3.64-3.85,6.25-3.89,2.62-.04,5.12.98,7.51,2.03,7.52,3.3,14.85,7.01,22.18,10.71,1.26.64,2.54,1.29,3.59,2.21-6.49-8.37-13.2-17.32-14.46-27.83-.24-1.97-.17-4.24,1.29-5.58,2.02-1.83,5.3-.75,7.43.95,3.01,2.4,5.1,5.77,6.8,9.23,3.39,6.88,5.52,14.59,4.49,22.24,1.93-5.76,3.85-11.52,5.78-17.28.51-1.56,1.04-3.12,1.9-4.52,1.92-3.1,5.52-5.08,9.17-5.03.41,0,.84.04,1.17.28.27.2.44.5.59.8,2.32,4.77,1.13,10.67-1.81,15.09-2.86,4.29-7.13,7.42-11.51,10.16Z"/>
      <g>
        <path class="cls-3" d="M203.89,212.86c-.14.05-.27.11-.41.16"/>
        <path class="cls-3" d="M203.89,212.86c4.38-2.74,8.65-5.87,11.51-10.16,2.94-4.42,4.13-10.32,1.81-15.09-.15-.3-.32-.6-.59-.8-.33-.24-.76-.27-1.17-.28-3.65-.05-7.25,1.93-9.17,5.03-.86,1.4-1.39,2.96-1.9,4.52-1.93,5.76-3.85,11.52-5.78,17.28,1.03-7.65-1.1-15.36-4.49-22.24-1.7-3.46-3.79-6.83-6.8-9.23-2.13-1.7-5.41-2.78-7.43-.95-1.46,1.34-1.53,3.61-1.29,5.58,1.26,10.51,7.97,19.46,14.46,27.83-1.05-.92-2.33-1.57-3.59-2.21-7.33-3.7-14.66-7.41-22.18-10.71-2.39-1.05-4.89-2.07-7.51-2.03-2.61.04-5.38,1.43-6.25,3.89-.68,1.93-.06,4.15,1.17,5.78,1.24,1.63,3.01,2.77,4.82,3.73,9.21,4.83,19.91,5.58,30.33,6.07-5.82,2.18-11.6,4.46-17.33,6.85-2.03.84-4.06,1.71-5.87,2.95-2.44,1.67-4.38,3.97-6.29,6.23-1.96,2.33-4.06,5.2-3.27,8.15.56,2.07,2.41,3.5,4.24,4.61,2.2,1.32,4.59,2.42,7.13,2.73,2.55.31,5.28-.25,7.23-1.91,1.14-.97,1.96-2.26,2.77-3.52,4.85-7.53,10.07-14.83,15.61-21.87-.16,2.4.88,4.64,2.08,6.67,2.77,4.7,6.51,8.83,10.91,12.06,1.74,1.27,3.78,2.45,5.92,2.15,3.26-.47,5.08-4.41,4.42-7.64-.67-3.23-3.07-5.79-5.52-8-3.27-2.96-6.82-5.63-10.76-7.6,10.22-1.23,20.31-3.49,30.08-6.71,1.11-.37,2.31-.82,2.92-1.82.66-1.09.38-2.58-.41-3.58-.79-1.01-2-1.6-3.22-1.98-5.03-1.54-10.42.15-15.37,1.94-3.76,1.36-7.5,2.79-11.22,4.28Z"/>
        <path class="cls-3" d="M203.52,213.09c.12-.08.25-.15.37-.23"/>
      </g>
    </g>
    <g>
      <path class="cls-1" d="M153.04,50.7c1.67-1.47,3.39-2.91,5.12-4.31,2.26-1.83,4.77-3.69,7.67-3.8.71-.03,1.44.06,2.04.44s1.01,1.11.86,1.8c-.13.63-.68,1.08-1.19,1.48-4.51,3.46-9.37,6.46-14.48,8.96,2.41.31,4.75,1.06,6.99,2.01,1.68.71,3.4,1.61,4.34,3.18.93,1.56.69,3.95-.93,4.78-1.05.55-2.34.31-3.47-.04-2.89-.89-5.58-2.36-7.88-4.31-1-.85-1.95-1.83-2.3-3.11-1.62,4.68-3.01,9.43-4.18,14.25-.19.8-.39,1.62-.81,2.34-.71,1.22-2.04,2-3.42,2.3-1.39.3-2.83.17-4.22-.13-1.16-.24-2.38-.65-3.05-1.63-.94-1.4-.37-3.27.23-4.85.59-1.53,1.18-3.08,2.15-4.39.72-.98,1.63-1.8,2.53-2.6,2.56-2.29,5.16-4.53,7.8-6.72-5.52,1.63-11.25,3.18-16.93,2.33-1.12-.17-2.25-.44-3.19-1.07s-1.67-1.67-1.66-2.8c0-1.45,1.2-2.67,2.56-3.17,1.35-.49,2.84-.41,4.28-.3,4.53.35,9.02.96,13.52,1.56.77.11,1.56.21,2.28.51-4.91-3.2-10.03-6.65-12.6-11.91-.49-.98-.86-2.18-.34-3.14.72-1.32,2.63-1.36,4.05-.86,2.01.71,3.71,2.09,5.22,3.59,3.02,2.98,5.53,6.61,6.38,10.79-.04-3.36-.08-6.71-.12-10.07,0-.9-.02-1.82.17-2.7.44-1.96,1.96-3.65,3.87-4.29.22-.07.45-.13.67-.07.18.06.32.19.45.31,2.08,2.07,2.53,5.37,1.8,8.21-.72,2.77-2.41,5.19-4.21,7.43Z"/>
      <g>
        <path class="cls-3" d="M153.04,50.7s-.09.08-.14.12"/>
        <path class="cls-3" d="M153.04,50.7c1.8-2.24,3.49-4.66,4.21-7.43.73-2.84.28-6.14-1.8-8.21-.13-.12-.27-.25-.45-.31-.22-.06-.45,0-.67.07-1.91.64-3.43,2.33-3.87,4.29-.19.88-.18,1.8-.17,2.7.04,3.36.08,6.71.12,10.07-.85-4.18-3.36-7.81-6.38-10.79-1.51-1.5-3.21-2.88-5.22-3.59-1.42-.5-3.33-.46-4.05.86-.52.96-.15,2.16.34,3.14,2.57,5.26,7.69,8.71,12.6,11.91-.72-.3-1.51-.4-2.28-.51-4.5-.6-8.99-1.21-13.52-1.56-1.44-.11-2.93-.19-4.28.3-1.36.5-2.56,1.72-2.56,3.17-.01,1.13.72,2.17,1.66,2.8s2.07.9,3.19,1.07c5.68.85,11.41-.7,16.93-2.33-2.64,2.19-5.24,4.43-7.8,6.72-.9.8-1.81,1.62-2.53,2.6-.97,1.31-1.56,2.86-2.15,4.39-.6,1.58-1.17,3.45-.23,4.85.67.98,1.89,1.39,3.05,1.63,1.39.3,2.83.43,4.22.13,1.38-.3,2.71-1.08,3.42-2.3.42-.72.62-1.54.81-2.34,1.17-4.82,2.56-9.57,4.18-14.25.35,1.28,1.3,2.26,2.3,3.11,2.3,1.95,4.99,3.42,7.88,4.31,1.13.35,2.42.59,3.47.04,1.62-.83,1.86-3.22.93-4.78-.94-1.57-2.66-2.47-4.34-3.18-2.24-.95-4.58-1.7-6.99-2.01,5.11-2.5,9.97-5.5,14.48-8.96.51-.4,1.06-.85,1.19-1.48.15-.69-.26-1.42-.86-1.8s-1.33-.47-2.04-.44c-2.9.11-5.41,1.97-7.67,3.8-1.73,1.4-3.45,2.84-5.12,4.31Z"/>
        <path class="cls-3" d="M152.93,50.84c.04-.05.07-.09.11-.14"/>
      </g>
    </g>
    <g>
      <path class="cls-1" d="M100.33,78.35c2.48.53,4.68,3.03,4,5.47-.44,1.59-1.91,2.66-3.34,3.49-3.62,2.09-7.68,3.44-11.84,3.93-1.8.21-3.69.26-5.32-.6,3.22,6.07,6.73,11.99,10.52,17.72.64.96,1.29,1.94,1.62,3.04.56,1.88.11,3.97-.89,5.66-1.01,1.7-2.52,3.04-4.12,4.17-1.35.95-2.93,1.8-4.55,1.55-2.32-.35-3.68-2.71-4.72-4.82-1-2.03-2.01-4.1-2.43-6.34-.31-1.65-.29-3.35-.25-5.03.09-4.77.27-9.53.54-14.29-.39.8-.79,1.6-1.2,2.39-3.25,6.36-6.89,12.61-12.44,17.03-1.23.98-2.58,1.87-4.11,2.24-1.53.36-3.27.11-4.42-.97-1.46-1.37-1.58-3.74-.8-5.59s2.27-3.29,3.75-4.65c4.64-4.26,9.51-8.26,14.38-12.26.83-.69,1.69-1.39,2.66-1.84-7.89,1.96-16.24,3.91-24.02,1.55-1.46-.44-3.03-1.19-3.51-2.63-.67-1.98,1.11-3.96,2.96-4.93,2.61-1.37,5.63-1.79,8.58-1.92,5.88-.25,11.96.64,17.01,3.72-3.45-3.13-6.9-6.26-10.35-9.4-.93-.84-1.87-1.7-2.58-2.73-1.59-2.3-1.86-5.45-.7-7.99.13-.29.29-.58.56-.74.22-.13.48-.16.74-.17,4.06-.16,7.85,2.5,10.04,5.93,2.13,3.35,3,7.32,3.57,11.25.1-3.08.26-6.15.47-9.22.27-4.03.75-8.34,3.39-11.39.64-.75,1.43-1.41,2.38-1.66.95-.24,2.08.02,2.64.83.52.73.46,1.71.38,2.6-.76,7.87-2.29,15.65-4.59,23.21,2.61-2.16,5.58-3.83,8.67-5.21,2.31-1.04,4.85-1.93,7.32-1.4Z"/>
      <path class="cls-3" d="M78.35,94.69c.41-.79.81-1.59,1.2-2.39-.27,4.76-.45,9.52-.54,14.29-.04,1.68-.06,3.38.25,5.03.42,2.24,1.43,4.31,2.43,6.34,1.04,2.11,2.4,4.47,4.72,4.82,1.62.25,3.2-.6,4.55-1.55,1.6-1.13,3.11-2.47,4.12-4.17,1-1.69,1.45-3.78.89-5.66-.33-1.1-.98-2.08-1.62-3.04-3.79-5.73-7.3-11.65-10.52-17.72,1.63.86,3.52.81,5.32.6,4.16-.49,8.22-1.84,11.84-3.93,1.43-.83,2.9-1.9,3.34-3.49.68-2.44-1.52-4.94-4-5.47-2.47-.53-5.01.36-7.32,1.4-3.09,1.38-6.06,3.05-8.67,5.21,2.3-7.56,3.83-15.34,4.59-23.21.08-.89.14-1.87-.38-2.6-.56-.81-1.69-1.07-2.64-.83-.95.25-1.74.91-2.38,1.66-2.64,3.05-3.12,7.36-3.39,11.39-.21,3.07-.37,6.14-.47,9.22-.57-3.93-1.44-7.9-3.57-11.25-2.19-3.43-5.98-6.09-10.04-5.93-.26.01-.52.04-.74.17-.27.16-.43.45-.56.74-1.16,2.54-.89,5.69.7,7.99.71,1.03,1.65,1.89,2.58,2.73,3.45,3.14,6.9,6.27,10.35,9.4-5.05-3.08-11.13-3.97-17.01-3.72-2.95.13-5.97.55-8.58,1.92-1.85.97-3.63,2.95-2.96,4.93.48,1.44,2.05,2.19,3.51,2.63,7.78,2.36,16.13.41,24.02-1.55-.97.45-1.83,1.15-2.66,1.84-4.87,4-9.74,8-14.38,12.26-1.48,1.36-2.97,2.8-3.75,4.65s-.66,4.22.8,5.59c1.15,1.08,2.89,1.33,4.42.97,1.53-.37,2.88-1.26,4.11-2.24,5.55-4.42,9.19-10.67,12.44-17.03Z"/>
    </g>
    <g>
      <path class="cls-1" d="M48.88,389.36c.66,2.11,1.29,4.23,1.89,6.37.78,2.8,1.48,5.84.42,8.55-.26.66-.63,1.3-1.22,1.69s-1.42.49-1.99.07c-.53-.37-.72-1.05-.88-1.68-1.37-5.52-2.19-11.17-2.44-16.85-1.25,2.09-2.87,3.93-4.64,5.61-1.32,1.25-2.83,2.47-4.64,2.7-1.8.24-3.9-.94-4.02-2.75-.08-1.19.66-2.27,1.43-3.17,1.96-2.29,4.39-4.18,7.1-5.51,1.17-.57,2.45-1.05,3.76-.86-3.64-3.35-7.45-6.53-11.39-9.52-.66-.5-1.34-1-1.83-1.67-.83-1.15-1.02-2.68-.74-4.06.27-1.39.98-2.66,1.8-3.82.68-.96,1.55-1.92,2.71-2.14,1.66-.31,3.15.96,4.36,2.14,1.16,1.15,2.35,2.31,3.17,3.73.6,1.04,1,2.2,1.37,3.35,1.08,3.26,2.1,6.54,3.05,9.83.71-5.71,1.57-11.58,4.62-16.45.6-.96,1.3-1.89,2.25-2.5.96-.61,2.2-.86,3.24-.4,1.32.58,1.96,2.16,1.88,3.61-.09,1.44-.76,2.77-1.44,4.05-2.13,4-4.47,7.89-6.82,11.77-.4.66-.82,1.34-1.37,1.88,4.89-3.22,10.09-6.54,15.94-6.8,1.09-.05,2.34.08,3.01.95.93,1.18.2,2.95-.83,4.05-1.44,1.56-3.39,2.57-5.36,3.36-3.94,1.58-8.27,2.43-12.45,1.54,3.1,1.31,6.19,2.61,9.29,3.91.83.35,1.67.7,2.4,1.24,1.63,1.18,2.57,3.25,2.39,5.26-.02.22-.06.46-.2.63-.12.14-.3.22-.47.29-2.72,1.08-5.93.18-8.23-1.62-2.25-1.76-3.8-4.26-5.12-6.78Z"/>
      <g>
        <path class="cls-3" d="M48.88,389.36c-.02-.07-.05-.15-.07-.22"/>
        <path class="cls-3" d="M48.88,389.36c1.32,2.52,2.87,5.02,5.12,6.78,2.3,1.8,5.51,2.7,8.23,1.62.17-.07.35-.15.47-.29.14-.17.18-.41.2-.63.18-2.01-.76-4.08-2.39-5.26-.73-.54-1.57-.89-2.4-1.24-3.1-1.3-6.19-2.6-9.29-3.91,4.18.89,8.51.04,12.45-1.54,1.97-.79,3.92-1.8,5.36-3.36,1.03-1.1,1.76-2.87.83-4.05-.67-.87-1.92-1-3.01-.95-5.85.26-11.05,3.58-15.94,6.8.55-.54.97-1.22,1.37-1.88,2.35-3.88,4.69-7.77,6.82-11.77.68-1.28,1.35-2.61,1.44-4.05.08-1.45-.56-3.03-1.88-3.61-1.04-.46-2.28-.21-3.24.4-.95.61-1.65,1.54-2.25,2.5-3.05,4.87-3.91,10.74-4.62,16.45-.95-3.29-1.97-6.57-3.05-9.83-.37-1.15-.77-2.31-1.37-3.35-.82-1.42-2.01-2.58-3.17-3.73-1.21-1.18-2.7-2.45-4.36-2.14-1.16.22-2.03,1.18-2.71,2.14-.82,1.16-1.53,2.43-1.8,3.82-.28,1.38-.09,2.91.74,4.06.49.67,1.17,1.17,1.83,1.67,3.94,2.99,7.75,6.17,11.39,9.52-1.31-.19-2.59.29-3.76.86-2.71,1.33-5.14,3.22-7.1,5.51-.77.9-1.51,1.98-1.43,3.17.12,1.81,2.22,2.99,4.02,2.75,1.81-.23,3.32-1.45,4.64-2.7,1.77-1.68,3.39-3.52,4.64-5.61.25,5.68,1.07,11.33,2.44,16.85.16.63.35,1.31.88,1.68.57.42,1.4.32,1.99-.07s.96-1.03,1.22-1.69c1.06-2.71.36-5.75-.42-8.55-.6-2.14-1.23-4.26-1.89-6.37Z"/>
        <path class="cls-3" d="M48.77,389.16c.03.07.07.13.11.2"/>
      </g>
    </g>
    <g>
      <path class="cls-1" d="M228.35,371.05c.16.63.28,1.27.21,1.91-.09,1-.6,1.92-1.27,2.67-1.81,2.07-4.61,2.96-7.32,3.39-2.8.44-5.68.5-8.37,1.4,1.03,5.02,2.05,10.03,3.08,15.05.44,2.17.88,4.35.93,6.56.02.86-.02,1.72-.07,2.58-.02.33-.05.67-.16.98-.14.37-.39.68-.65.98-.49.6-1.02,1.21-1.74,1.47-.47.17-1,.18-1.48.07-1.88-.41-3.06-2.23-3.85-3.98-1.13-2.47-1.88-5.09-2.39-7.76-.62-3.22-.89-6.5-.8-9.77-2.93,3.8-7.45,6.35-12.22,6.88-1.16.12-2.36.13-3.45-.26-1.1-.4-2.08-1.26-2.36-2.39-.45-1.77.97-3.52,1.57-4.25,3.15-3.78,9.52-5.42,12.99-6,1.49-.12,2.39-.2,2.39-.25-.01-.05-.95.01-2.39.25-4.7.37-15.31,1.12-22.27,2.43-.51.1-2.57.49-4.58-.47-1.74-.82-2.77-2.32-2.88-3.34-.03-.31-.02-.63.14-.9.25-.42.78-.57,1.27-.68,10.04-2.22,20.45-1.79,30.73-1.3-6.28-3.62-12.02-8.19-16.98-13.49-1.97-2.11-3.86-4.4-4.86-7.12-.47-1.29-.73-2.72-.34-4.04.61-2.09,2.78-3.47,4.96-3.64s4.33.67,6.18,1.82c3.36,2.09,6,5.19,8.05,8.58,2.05,3.38,3.54,7.06,5.02,10.73.87,2.16,1.74,4.34,2.14,6.63,0,0,.4-1.42.4-1.44-.84-5.81-1.53-11.82-.06-17.51.32-1.22.75-2.44,1.55-3.41,1.49-1.77,4.24-2.34,6.31-1.3,1.54.77,2.62,2.3,3.12,3.94.51,1.65.49,3.41.27,5.12-.55,4.24-2.4,8.31-5.25,11.5-.89.69-1.71,1.47-2.44,2.33.88-.71,1.7-1.49,2.44-2.33,3.43-2.67,7.88-4.04,12.2-3.52.55.06,1.13.17,1.54.55.38.34.56.84.69,1.33Z"/>
      <g>
        <path class="cls-3" d="M213.92,372.69c2.85-3.19,4.7-7.26,5.25-11.5.22-1.71.24-3.47-.27-5.12-.5-1.64-1.58-3.17-3.12-3.94-2.07-1.04-4.82-.47-6.31,1.3-.8.97-1.23,2.19-1.55,3.41-1.47,5.69-.78,11.7.06,17.51,0,.02-.4,1.44-.4,1.44-.4-2.29-1.27-4.47-2.14-6.63-1.48-3.67-2.97-7.35-5.02-10.73-2.05-3.39-4.69-6.49-8.05-8.58-1.85-1.15-4-1.99-6.18-1.82s-4.35,1.55-4.96,3.64c-.39,1.32-.13,2.75.34,4.04,1,2.72,2.89,5.01,4.86,7.12,4.96,5.3,10.7,9.87,16.98,13.49-10.28-.49-20.69-.92-30.73,1.3-.49.11-1.02.26-1.27.68-.16.27-.17.59-.14.9.11,1.02,1.14,2.52,2.88,3.34,2.01.96,4.07.57,4.58.47,6.96-1.31,17.57-2.06,22.27-2.43"/>
        <path class="cls-3" d="M213.92,372.69c-.89.69-1.71,1.47-2.44,2.33.88-.71,1.7-1.49,2.44-2.33Z"/>
        <path class="cls-3" d="M201,380.58c-3.47.58-9.84,2.22-12.99,6-.6.73-2.02,2.48-1.57,4.25.28,1.13,1.26,1.99,2.36,2.39,1.09.39,2.29.38,3.45.26,4.77-.53,9.29-3.08,12.22-6.88-.09,3.27.18,6.55.8,9.77.51,2.67,1.26,5.29,2.39,7.76.79,1.75,1.97,3.57,3.85,3.98.48.11,1.01.1,1.48-.07.72-.26,1.25-.87,1.74-1.47.26-.3.51-.61.65-.98.11-.31.14-.65.16-.98.05-.86.09-1.72.07-2.58-.05-2.21-.49-4.39-.93-6.56-1.03-5.02-2.05-10.03-3.08-15.05,2.69-.9,5.57-.96,8.37-1.4,2.71-.43,5.51-1.32,7.32-3.39.67-.75,1.18-1.67,1.27-2.67.07-.64-.05-1.28-.21-1.91-.13-.49-.31-.99-.69-1.33-.41-.38-.99-.49-1.54-.55-4.32-.52-8.77.85-12.2,3.52"/>
        <path class="cls-3" d="M201,380.58c1.49-.12,2.39-.2,2.39-.25-.01-.05-.95.01-2.39.25Z"/>
      </g>
    </g>
  </g>
</svg>