<?xml version="1.0" encoding="UTF-8" standalone="no"?>
<!-- Created with Inkscape (http://www.inkscape.org/) -->

<svg
   width="48"
   height="48"
   viewBox="0 0 48 48"
   version="1.1"
   id="svg1"
   xml:space="preserve"
   inkscape:version="1.3.2 (091e20e, 2023-11-25, custom)"
   sodipodi:docname="build boquet.svg"
   xmlns:inkscape="http://www.inkscape.org/namespaces/inkscape"
   xmlns:sodipodi="http://sodipodi.sourceforge.net/DTD/sodipodi-0.dtd"
   xmlns="http://www.w3.org/2000/svg"
   xmlns:svg="http://www.w3.org/2000/svg"><sodipodi:namedview
     id="namedview1"
     pagecolor="#ffffff"
     bordercolor="#000000"
     borderopacity="0.25"
     inkscape:showpageshadow="2"
     inkscape:pageopacity="0.0"
     inkscape:pagecheckerboard="0"
     inkscape:deskcolor="#d1d1d1"
     inkscape:document-units="px"
     inkscape:zoom="5.7231455"
     inkscape:cx="-28.568206"
     inkscape:cy="49.011509"
     inkscape:window-width="1920"
     inkscape:window-height="991"
     inkscape:window-x="-9"
     inkscape:window-y="-9"
     inkscape:window-maximized="1"
     inkscape:current-layer="layer1" /><defs
     id="defs1" /><g
     inkscape:label="Layer 1"
     inkscape:groupmode="layer"
     id="layer1"><path
       style="fill:#000000;stroke-width:0.713184"
       d="m 5.3992581,32.429667 c -0.3999863,-1.225701 -0.1870194,-1.702852 0.8665215,-1.941435 0.7682652,-0.173982 2.0516655,-0.46588 2.8520022,-0.648661 1.0400922,-0.237538 1.2907242,-0.617136 0.878679,-1.330819 -0.839367,-1.453826 1.6107692,-2.61651 2.7022962,-1.282343 0.804146,0.982904 1.268632,0.449403 4.614644,-5.300307 2.046275,-3.516269 3.798533,-6.899919 3.893912,-7.519224 0.09538,-0.619303 1.115874,-2.19766 2.26777,-3.507458 1.812678,-2.0611608 2.33202,-2.3606248 3.861421,-2.2266208 0.971894,0.08517 1.981513,0.52627 2.243597,0.980212 0.262084,0.4539428 0.985786,0.7446328 1.608225,0.6459768 0.62244,-0.09866 1.351686,0.201638 1.620549,0.667322 0.268863,0.465684 1.366464,0.762123 2.439115,0.658752 1.07265,-0.103371 2.169543,0.19184 2.437539,0.656022 0.267996,0.464183 1.333577,1.026093 2.367958,1.248689 1.034387,0.222608 2.151892,0.874451 2.483349,1.448551 0.331457,0.5741 0.337217,1.867809 0.0128,2.874908 -0.324416,1.007098 -0.448052,2.076686 -0.274746,2.376861 0.173306,0.300175 -0.12865,2.344632 -0.671015,4.543238 -0.542365,2.198604 -0.783389,4.3486 -0.535609,4.777767 0.247779,0.429167 0.06541,1.40031 -0.40526,2.158095 -1.012471,1.630087 -6.976401,3.093046 -8.988008,2.20477 -0.678627,-0.299664 -4.36909,-0.545469 -8.201031,-0.546232 -6.29308,-0.0013 -6.91863,0.126775 -6.465531,1.323264 0.68257,1.802449 -1.638407,3.125051 -2.590407,1.476138 -0.683626,-1.184074 -0.759907,-1.148917 -2.268355,1.045471 -0.858516,1.248913 -1.783759,2.211046 -2.056093,2.138073 C 9.3179628,39.142852 5.9877295,34.232967 5.3992476,32.42965 Z"
       id="path3" /><path
       style="fill:#000000;stroke-width:0.221896"
       d="M 6.6021026,20.373015 C 4.5041301,19.476226 4.8779936,16.534604 7.1417502,16.126977 8.6751205,15.850869 8.6617348,15.667369 6.9818454,13.934892 6.1316864,13.058119 5.3690142,12.073463 5.2870193,11.746768 5.0611434,10.846809 5.351934,9.7330779 5.9625784,9.1594129 l 0.5471078,-0.5139819 2.2232015,2.184253 2.2232013,2.184253 2.223202,-2.184253 2.223202,-2.184253 0.547107,0.5139819 c 0.610639,0.573665 0.901435,1.6873961 0.675559,2.5873551 -0.08199,0.326695 -0.844667,1.311351 -1.694825,2.188124 -1.67989,1.732477 -1.693276,1.915977 -0.159906,2.192085 0.945821,0.170311 1.954971,1.213563 1.954971,2.021036 0,1.417471 -1.019391,2.430423 -2.40631,2.391109 -0.925146,-0.02622 -2.031621,-1.064038 -2.031621,-1.905553 0,-0.324015 -0.237214,-0.643525 -0.665689,-0.896631 -0.637159,-0.376379 -0.694221,-0.376379 -1.331379,0 -0.4284752,0.253106 -0.6656898,0.572616 -0.6656898,0.896631 0,0.634313 -1.0434213,1.761258 -1.7751724,1.917269 -0.3051077,0.06505 -0.8664536,-0.01497 -1.2474352,-0.177823 z m 1.5553349,-1.072419 c 0.275356,-0.201345 0.3709236,-0.515141 0.3197817,-1.050001 -0.057239,-0.598637 -0.2028427,-0.808234 -0.676436,-0.973739 -1.1463464,-0.400608 -1.9721029,0.982651 -1.137285,1.905114 0.4317483,0.477077 0.9477006,0.518046 1.4939393,0.118626 z m 7.0526885,-0.08007 c 0.923334,-0.835608 0.06672,-2.350957 -1.098731,-1.94367 -0.455542,0.159196 -0.620033,0.379896 -0.670952,0.900225 -0.116778,1.193306 0.925209,1.807683 1.769683,1.043445 z m -3.632089,-3.765082 c 0.07273,-0.509706 -0.409838,-0.816872 -0.954793,-0.607753 -0.344387,0.132154 -0.451743,0.774966 -0.175553,1.051155 0.316354,0.316353 1.063776,0.02316 1.130346,-0.443402 z"
       id="path4" /><path
       style="fill:#ffffff;stroke-width:0.0977472"
       d="m 25.151669,16.984629 c -0.71046,-0.35167 -1.176444,-1.218177 -1.035115,-1.92482 0.05047,-0.252384 0.0019,-0.370499 -0.295112,-0.717483 -0.652383,-0.762163 -0.705661,-1.653578 -0.145084,-2.427433 0.309065,-0.426651 0.923647,-0.77669 1.370229,-0.780421 0.189987,-0.0016 0.287359,-0.07557 0.373654,-0.283905 0.556879,-1.3444238 2.664757,-1.4614162 3.45405,-0.191708 0.195549,0.314572 0.361073,0.473467 0.49322,0.473467 0.333964,0 1.034588,0.393346 1.280093,0.718674 0.561549,0.744128 0.566601,1.718184 0.01268,2.443866 -0.281003,0.368133 -0.329358,0.516026 -0.36292,1.109996 -0.03214,0.568725 -0.08625,0.747589 -0.318192,1.051677 -0.509792,0.668373 -1.542324,0.922756 -2.381898,0.586826 -0.33462,-0.133889 -0.416765,-0.133889 -0.796246,0 -0.585879,0.20671 -1.15396,0.186479 -1.649354,-0.05874 z m 1.681365,-0.81832 c 0.198052,-0.134403 0.378183,-0.244369 0.400287,-0.244369 0.02211,0 0.202236,0.109962 0.400289,0.244369 0.688373,0.467142 1.660981,0.22572 1.890331,-0.469221 0.108171,-0.327754 0.06498,-0.564332 -0.227327,-1.245229 -0.04725,-0.110069 0.0298,-0.184631 0.286849,-0.27758 0.643746,-0.232782 0.894113,-0.953663 0.569096,-1.638588 -0.201802,-0.425266 -0.577802,-0.621387 -1.191313,-0.621387 h -0.481098 l -0.06082,-0.380389 c -0.08729,-0.54591 -0.60896,-0.9882 -1.164964,-0.987707 -0.712293,6.35e-4 -1.105016,0.360546 -1.279489,1.172601 -0.04865,0.226404 -0.08788,0.241937 -0.533711,0.211296 -0.583614,-0.04011 -1.02751,0.163639 -1.236346,0.567483 -0.321824,0.622339 -0.06504,1.300942 0.606953,1.603966 l 0.393076,0.177252 -0.200265,0.474013 c -0.176222,0.417105 -0.185837,0.522167 -0.08009,0.875115 0.227755,0.760176 1.184154,1.029963 1.90855,0.538375 z m -0.08845,-1.407839 c -0.435088,-0.191098 -0.68423,-0.588247 -0.68423,-1.090712 0,-0.410637 0.04559,-0.524577 0.319559,-0.798539 0.275036,-0.275036 0.387126,-0.319558 0.804534,-0.319558 0.417409,0 0.529499,0.04452 0.804535,0.319558 0.275037,0.275037 0.319559,0.387126 0.319559,0.804534 0,0.411787 -0.04563,0.53061 -0.30237,0.787347 -0.32274,0.32274 -0.896113,0.457891 -1.261587,0.29737 z"
       id="path1" /><path
       style="fill:#ffffff;stroke-width:0.0977472"
       d="m 34.172663,17.888446 c -0.116976,-0.784055 0.328298,-1.661384 0.989113,-1.948859 0.236013,-0.10268 0.305245,-0.209997 0.420504,-0.651958 0.253178,-0.970771 0.954559,-1.523514 1.909945,-1.505187 0.526735,0.0101 1.165029,0.314768 1.423093,0.679257 0.109798,0.155055 0.226123,0.192755 0.44643,0.144637 1.42168,-0.310508 2.721337,1.353141 2.129668,2.726119 -0.146586,0.340158 -0.182515,0.566775 -0.107058,0.67526 0.190696,0.274166 0.267841,1.073943 0.14095,1.461254 -0.29024,0.885903 -1.087002,1.446244 -1.99904,1.405874 -0.462671,-0.02048 -0.611695,0.02427 -1.118476,0.335878 -0.485244,0.298361 -0.662978,0.356072 -1.045059,0.339297 -0.839792,-0.03687 -1.638209,-0.739263 -1.841832,-1.620326 -0.08115,-0.351156 -0.12806,-0.418593 -0.454662,-0.653674 -0.504239,-0.362942 -0.812008,-0.840857 -0.89357,-1.38757 z m 1.631867,0.913042 c 0.223426,0.08585 0.416558,0.170931 0.42918,0.189077 0.01262,0.01815 0.0252,0.228814 0.02795,0.468152 0.0096,0.831858 0.763128,1.492462 1.464597,1.283929 0.330834,-0.09835 0.50039,-0.268892 0.892459,-0.897657 0.06338,-0.10164 0.168588,-0.08096 0.391671,0.07699 0.558685,0.39556 1.29345,0.18947 1.670149,-0.468448 0.23389,-0.408499 0.180196,-0.82916 -0.170123,-1.332819 l -0.274711,-0.394955 0.27755,-0.267135 c 0.398319,-0.383379 0.463538,-1.064192 0.145651,-1.520359 -0.407246,-0.584391 -0.926961,-0.701284 -1.693238,-0.380827 -0.213645,0.08934 -0.248798,0.066 -0.478216,-0.317496 -0.300319,-0.502019 -0.721054,-0.750091 -1.171834,-0.690936 -0.69467,0.09116 -1.105141,0.689453 -0.970194,1.414151 l 0.07893,0.423906 -0.503491,0.106258 c -0.443045,0.0935 -0.534785,0.145599 -0.764154,0.433948 -0.494013,0.62104 -0.169383,1.560241 0.647819,1.87423 z m 1.105253,-0.876499 c -0.09156,-0.466301 0.09222,-0.897608 0.504714,-1.184519 0.337111,-0.234477 0.456682,-0.26211 0.838028,-0.193631 0.382836,0.06874 0.483391,0.135339 0.721734,0.478008 0.238343,0.34267 0.265799,0.460111 0.197055,0.842949 -0.06874,0.382839 -0.135339,0.483392 -0.478008,0.721735 -0.338054,0.235134 -0.461657,0.265523 -0.819024,0.201352 -0.449239,-0.08066 -0.88759,-0.474201 -0.964499,-0.865894 z"
       id="path2" /><path
       style="fill:#ffffff;stroke-width:0.0977472"
       d="m 32.659149,28.884585 c -0.116976,-0.784055 0.328298,-1.661384 0.989113,-1.948859 0.236013,-0.10268 0.305245,-0.209997 0.420504,-0.651958 0.253178,-0.970771 0.954559,-1.523514 1.909945,-1.505187 0.526735,0.0101 1.165029,0.314768 1.423093,0.679257 0.109798,0.155055 0.226123,0.192755 0.44643,0.144637 1.42168,-0.310508 2.721337,1.353141 2.129668,2.726119 -0.146586,0.340158 -0.182515,0.566775 -0.107058,0.67526 0.190696,0.274166 0.267841,1.073943 0.14095,1.461254 -0.29024,0.885903 -1.087002,1.446244 -1.99904,1.405874 -0.462671,-0.02048 -0.611695,0.02427 -1.118476,0.335878 -0.485244,0.298361 -0.662978,0.356072 -1.045059,0.339297 -0.839792,-0.03687 -1.638209,-0.739263 -1.841832,-1.620326 -0.08115,-0.351156 -0.12806,-0.418593 -0.454662,-0.653674 -0.504239,-0.362942 -0.812008,-0.840857 -0.89357,-1.38757 z m 1.631867,0.913042 c 0.223426,0.08585 0.416558,0.170931 0.42918,0.189077 0.01262,0.01815 0.0252,0.228814 0.02795,0.468152 0.0096,0.831858 0.763128,1.492462 1.464597,1.283929 0.330834,-0.09835 0.50039,-0.268892 0.892459,-0.897657 0.06338,-0.10164 0.168588,-0.08096 0.391671,0.07699 0.558685,0.39556 1.29345,0.18947 1.670149,-0.468448 0.23389,-0.408499 0.180196,-0.82916 -0.170123,-1.332819 l -0.274711,-0.394955 0.27755,-0.267135 c 0.398319,-0.383379 0.463538,-1.064192 0.145651,-1.520359 -0.407246,-0.584391 -0.926961,-0.701284 -1.693238,-0.380827 -0.213645,0.08934 -0.248798,0.066 -0.478216,-0.317496 -0.300319,-0.502019 -0.721054,-0.750091 -1.171834,-0.690936 -0.69467,0.09116 -1.105141,0.689453 -0.970194,1.414151 l 0.07893,0.423906 -0.503491,0.106258 c -0.443045,0.0935 -0.534785,0.145599 -0.764154,0.433948 -0.494013,0.62104 -0.169383,1.560241 0.647819,1.87423 z m 1.105253,-0.876499 c -0.09156,-0.466301 0.09222,-0.897608 0.504714,-1.184519 0.337111,-0.234477 0.456682,-0.26211 0.838028,-0.193631 0.382836,0.06874 0.483391,0.135339 0.721734,0.478008 0.238343,0.34267 0.265799,0.460111 0.197055,0.842949 -0.06874,0.382839 -0.135339,0.483392 -0.478008,0.721735 -0.338054,0.235134 -0.461657,0.265523 -0.819024,0.201352 -0.449239,-0.08066 -0.88759,-0.474201 -0.964499,-0.865894 z"
       id="path5" /></g></svg>
