<?xml version="1.0" encoding="UTF-8" standalone="no"?>
<!-- Created with Inkscape (http://www.inkscape.org/) -->

<svg
   width="48"
   height="48"
   viewBox="0 0 48 48"
   version="1.1"
   id="svg1"
   xml:space="preserve"
   inkscape:version="1.3.2 (091e20e, 2023-11-25, custom)"
   sodipodi:docname="flowershop.svg"
   xmlns:inkscape="http://www.inkscape.org/namespaces/inkscape"
   xmlns:sodipodi="http://sodipodi.sourceforge.net/DTD/sodipodi-0.dtd"
   xmlns="http://www.w3.org/2000/svg"
   xmlns:svg="http://www.w3.org/2000/svg"><sodipodi:namedview
     id="namedview1"
     pagecolor="#ffffff"
     bordercolor="#000000"
     borderopacity="0.25"
     inkscape:showpageshadow="2"
     inkscape:pageopacity="0.0"
     inkscape:pagecheckerboard="0"
     inkscape:deskcolor="#d1d1d1"
     inkscape:document-units="px"
     inkscape:zoom="11.446291"
     inkscape:cx="29.572898"
     inkscape:cy="27.388785"
     inkscape:window-width="1920"
     inkscape:window-height="991"
     inkscape:window-x="-9"
     inkscape:window-y="-9"
     inkscape:window-maximized="1"
     inkscape:current-layer="layer1" /><defs
     id="defs1" /><g
     inkscape:label="Layer 1"
     inkscape:groupmode="layer"
     id="layer1"><path
       id="path1"
       style="fill:#000000"
       d="M 23.984375,8.484375 C 16.978561,8.493936 9.9720255,8.8425202 9.4101562,9.5195312 8.4524368,10.673513 8.1518567,16.596578 8.3847656,29.699219 l 0.1738282,9.742187 H 24 39.441406 l 0.164063,-9.742187 C 39.819555,16.87878 39.494087,10.610023 38.556641,9.4804688 37.996041,8.8049893 30.990189,8.474814 23.984375,8.484375 Z M 11.5,10.763672 c 0.404438,0 0.734375,0.331891 0.734375,0.736328 0,0.404438 -0.329937,0.734375 -0.734375,0.734375 -0.404437,0 -0.736328,-0.329937 -0.736328,-0.734375 0,-0.404437 0.331891,-0.736328 0.736328,-0.736328 z m 2.205078,0 c 0.404437,0 0.736328,0.331891 0.736328,0.736328 0,0.404438 -0.331891,0.734375 -0.736328,0.734375 -0.404434,0 -0.734375,-0.329937 -0.734375,-0.734375 0,-0.404437 0.329941,-0.736328 0.734375,-0.736328 z m 2.207031,0 c 0.404437,0 0.734375,0.331891 0.734375,0.736328 0,0.404438 -0.329938,0.734375 -0.734375,0.734375 -0.404434,0 -0.736328,-0.329937 -0.736328,-0.734375 0,-0.404437 0.331894,-0.736328 0.736328,-0.736328 z m 0.408203,3.677734 c 1.757219,0 1.867528,0.203008 1.65625,3.117188 -0.152785,2.107438 -0.595691,3.190254 -1.365234,3.335937 -1.683399,0.318686 -2.169922,-0.496794 -2.169922,-3.634765 0,-2.533392 0.188697,-2.81836 1.878906,-2.81836 z m 5.148438,0 c 1.757215,0 1.865575,0.203008 1.654297,3.117188 -0.152789,2.107438 -0.595688,3.190254 -1.365235,3.335937 -1.683399,0.318686 -2.169921,-0.496794 -2.169921,-3.634765 0,-2.533392 0.19065,-2.81836 1.880859,-2.81836 z m 5.146484,0 c 1.75722,0 1.865575,0.203008 1.654297,3.117188 -0.152789,2.107438 -0.593738,3.190254 -1.363281,3.335937 -1.683399,0.318686 -2.171875,-0.496794 -2.171875,-3.634765 0,-2.533392 0.19065,-2.81836 1.880859,-2.81836 z m 5.148438,0 c 1.757216,0 1.865574,0.203008 1.654297,3.117188 -0.152789,2.107438 -0.595688,3.190254 -1.365235,3.335937 -1.683399,0.318686 -2.169921,-0.496794 -2.169922,-3.634765 0,-2.533392 0.190652,-2.81836 1.88086,-2.81836 z m -19.878906,0.06641 c 1.074887,-0.06974 1.13335,0.412337 0.947265,2.994141 -0.167967,2.330448 -0.573624,3.240491 -1.519531,3.419922 -1.533825,0.290955 -2.2183088,-1.167665 -1.890625,-4.029297 0.1750884,-1.529031 0.692647,-2.149459 1.939453,-2.326172 0.19738,-0.02798 0.369882,-0.04863 0.523438,-0.05859 z m 24.30664,0.01367 c 0.145956,0.0071 0.309976,0.02658 0.494141,0.05274 1.39979,0.198803 1.654297,0.686017 1.654297,3.166015 0,2.061969 -0.337555,2.996109 -1.138672,3.150391 -1.688009,0.325082 -2.171875,-0.492667 -2.171875,-3.681641 0,-2.236175 0.140422,-2.737502 1.162109,-2.6875 z m -21.75,10.212891 h 4.41211 4.412109 v 6.619141 6.617187 h -4.412109 -4.41211 v -6.617187 z m 10.292969,0 h 4.78125 4.779297 v 6.619141 6.617187 h -4.779297 -4.78125 v -6.617187 z m -3.095703,6.199219 c -0.003,0 0.0024,0.0053 0.0039,0.0078 -0.0094,0.0064 -0.04026,0.02068 -0.0293,0.01758 0.01941,-0.0055 0.03657,-0.01148 0.05273,-0.01758 -10e-4,-0.0015 -0.0029,-0.0024 -0.0039,-0.0039 -0.0078,-0.0017 -0.01541,-0.0038 -0.02344,-0.0039 z m 0.103516,0.482422 c 0.0027,0.0082 0.0054,0.01958 0.0098,0.03125 l 0.002,0.002 c -0.0017,-0.0064 -0.0029,-0.01523 -0.0039,-0.01953 -0.0031,-0.0056 -0.0052,-0.0089 -0.0078,-0.01367 z m 5.576171,0.345703 c 0.0066,0.01027 0.01234,0.01948 0.01953,0.0293 0.0029,0.004 0.01083,0.0032 0.01563,0.002 0.01863,-0.0046 -0.0076,-0.01876 -0.03516,-0.03125 z" /><path
       style="fill:#000000;stroke-width:0.0797183"
       d="m 41.656014,39.39137 c -0.04078,-0.04078 -0.07414,-0.161834 -0.07414,-0.269013 0,-0.107175 -0.04853,-0.194867 -0.107853,-0.194867 -0.19433,0 -0.52909,-0.682442 -0.529498,-1.079429 -2.94e-4,-0.291002 0.09596,-0.503877 0.383467,-0.847993 0.513524,-0.614646 0.629976,-0.930316 0.404124,-1.095463 -0.09535,-0.06971 -0.155548,-0.219262 -0.133763,-0.332319 0.03639,-0.188971 0.137995,-0.205556 1.259025,-0.205556 1.121041,0 1.222634,0.01661 1.259027,0.205556 0.02177,0.11305 -0.03843,0.2626 -0.133763,0.332319 -0.225852,0.165138 -0.109408,0.480817 0.404124,1.095463 0.2875,0.344116 0.383764,0.556991 0.383466,0.847993 -3.98e-4,0.389785 -0.333968,1.079429 -0.522104,1.079429 -0.05525,0 -0.115747,0.107622 -0.134425,0.239155 -0.03259,0.229416 -0.08182,0.240371 -1.208743,0.269013 -0.646129,0.01643 -1.208143,-0.0036 -1.248924,-0.04429 z m -1.581465,-4.529524 c -0.199678,-0.159673 -0.405925,-0.743611 -0.405925,-1.149298 0,-0.222113 0.108872,-0.373881 0.446106,-0.621887 0.486586,-0.357841 1.005476,-0.45068 0.893908,-0.159942 -0.03548,0.09248 -0.06452,0.29177 -0.06452,0.442881 0,0.15112 -0.0302,0.244547 -0.06712,0.207631 -0.117372,-0.117372 -0.464335,0.137656 -0.464335,0.341289 0,0.301372 0.26267,0.471997 0.517044,0.335862 0.181908,-0.09735 0.235069,-0.06661 0.377107,0.218116 0.09094,0.182296 0.139371,0.37347 0.107639,0.424829 -0.08809,0.142531 -1.151466,0.111193 -1.339903,-0.03948 z m 4.238854,0.05314 c -0.02452,-0.04384 0.02116,-0.23649 0.101514,-0.4281 0.128443,-0.306263 0.172441,-0.334286 0.363982,-0.23178 0.260773,0.139567 0.523159,-0.02725 0.523159,-0.332589 0,-0.192655 -0.344367,-0.461259 -0.452601,-0.353025 -0.03046,0.03046 -0.07389,-0.138638 -0.0965,-0.375759 -0.0355,-0.37219 -0.0125,-0.431145 0.168566,-0.431145 0.278848,0 1.021758,0.522315 1.119775,0.787276 0.100139,0.270726 -0.157424,1.139223 -0.389104,1.311978 -0.191349,0.142692 -1.264877,0.185301 -1.338792,0.05314 z m -2.227244,-0.372018 c -0.202251,-0.154352 -0.500495,-0.964306 -0.502743,-1.365315 -0.0014,-0.248015 0.275968,-0.627649 0.45856,-0.627649 0.03925,0 0.167013,-0.09566 0.283932,-0.212583 0.262568,-0.262568 0.783925,-0.275816 1.045666,-0.02657 0.107443,0.1023 0.286804,0.238253 0.398595,0.302104 0.390653,0.223134 0.484741,0.594587 0.296619,1.171034 -0.236137,0.723578 -0.46271,0.891844 -1.200883,0.891844 -0.333112,0 -0.683998,-0.05978 -0.779746,-0.13287 z m 1.068821,-0.738726 c 0.188456,-0.188455 0.154834,-0.594711 -0.05846,-0.706481 -0.29368,-0.153888 -0.664319,0.03971 -0.664319,0.347014 0,0.391234 0.461494,0.620753 0.722782,0.359467 z"
       id="path129368" /><path
       style="fill:#000000;stroke-width:0.0797183"
       d="m 3.9022386,39.39137 c -0.040784,-0.04078 -0.074141,-0.161834 -0.074141,-0.269013 0,-0.107175 -0.048534,-0.194867 -0.1078536,-0.194867 -0.1943295,0 -0.5290901,-0.682442 -0.5294972,-1.079429 -2.947e-4,-0.291002 0.095961,-0.503877 0.3834662,-0.847993 0.5135245,-0.614646 0.6299761,-0.930316 0.4041244,-1.095463 -0.095354,-0.06971 -0.1555485,-0.219262 -0.1337635,-0.332319 0.036392,-0.188971 0.1379955,-0.205556 1.2590254,-0.205556 1.1210406,0 1.2226337,0.01661 1.2590272,0.205556 0.021767,0.11305 -0.038427,0.2626 -0.1337635,0.332319 -0.2258517,0.165138 -0.1094072,0.480817 0.4041244,1.095463 0.2874996,0.344116 0.3837644,0.556991 0.3834662,0.847993 -3.982e-4,0.389785 -0.3339678,1.079429 -0.5221046,1.079429 -0.055248,0 -0.1157462,0.107622 -0.1344242,0.239155 -0.032588,0.229416 -0.081819,0.240371 -1.2087431,0.269013 -0.6461291,0.01643 -1.2081431,-0.0036 -1.248924,-0.04429 z M 2.3207736,34.861846 C 2.1210961,34.702173 1.9148492,34.118235 1.9148492,33.712548 c 0,-0.222113 0.1088715,-0.373881 0.4461052,-0.621887 0.4865861,-0.357841 1.0054765,-0.45068 0.8939087,-0.159942 -0.035481,0.09248 -0.064516,0.29177 -0.064516,0.442881 0,0.15112 -0.030195,0.244547 -0.067123,0.207631 -0.1173712,-0.117372 -0.464335,0.137656 -0.464335,0.341289 0,0.301372 0.26267,0.471997 0.517044,0.335862 0.1819084,-0.09735 0.2350692,-0.06661 0.3771074,0.218116 0.090943,0.182296 0.1393705,0.37347 0.1076394,0.424829 -0.088086,0.142531 -1.1514664,0.111193 -1.3399031,-0.03948 z m 4.2388542,0.05314 c -0.024517,-0.04384 0.02116,-0.23649 0.1015146,-0.4281 0.1284422,-0.306263 0.1724408,-0.334286 0.3639811,-0.23178 0.2607738,0.139567 0.5231598,-0.02725 0.5231598,-0.332589 0,-0.192655 -0.344367,-0.461259 -0.4526014,-0.353025 -0.030463,0.03046 -0.07389,-0.138638 -0.096497,-0.375759 -0.035499,-0.37219 -0.0125,-0.431145 0.168566,-0.431145 0.2788484,0 1.0217584,0.522315 1.1197744,0.787276 0.10014,0.270726 -0.157423,1.139223 -0.389103,1.311978 -0.191349,0.142692 -1.2648774,0.185301 -1.3387928,0.05314 z M 4.3323836,34.542969 C 4.130133,34.388617 3.8318891,33.578663 3.8296409,33.177654 c -0.00137,-0.248015 0.2759679,-0.627649 0.4585602,-0.627649 0.039249,0 0.1670125,-0.09566 0.2839319,-0.212583 0.2625683,-0.262568 0.7839247,-0.275816 1.0456663,-0.02657 0.1074429,0.1023 0.2868032,0.238253 0.3985942,0.302104 0.3906535,0.223134 0.4847415,0.594587 0.296619,1.171034 -0.236137,0.723578 -0.46271,0.891844 -1.2008826,0.891844 -0.3331125,0 -0.6839976,-0.05978 -0.7797463,-0.13287 z m 1.0688209,-0.738726 c 0.1884564,-0.188455 0.1548343,-0.594711 -0.058462,-0.706481 -0.2936798,-0.153888 -0.6643196,0.03971 -0.6643196,0.347014 0,0.391234 0.461494,0.620753 0.7227816,0.359467 z"
       id="path129369" /><path
       style="display:inline;fill:#000000;stroke-width:0.0211938"
       d="m 26.499337,32.172506 c -0.199347,-0.06051 -0.327602,-0.325535 -0.280094,-0.578779 0.01674,-0.08925 0.0064,-0.114204 -0.09504,-0.229464 -0.271042,-0.307918 -0.142686,-0.683791 0.264634,-0.774945 0.124209,-0.0278 0.168076,-0.05139 0.186716,-0.100416 0.0134,-0.03525 0.07081,-0.115491 0.127575,-0.178324 0.235937,-0.261154 0.58233,-0.189771 0.75622,0.155837 0.03661,0.07276 0.07008,0.09283 0.205271,0.123087 0.400149,0.08955 0.532993,0.461777 0.273146,0.765351 -0.101435,0.118503 -0.105036,0.130158 -0.105551,0.341622 -5.68e-4,0.236391 -0.03537,0.314027 -0.193744,0.432268 -0.106067,0.07919 -0.332441,0.0761 -0.492056,-0.0067 l -0.120098,-0.06232 -0.110441,0.05634 c -0.136952,0.06987 -0.299692,0.09193 -0.416533,0.05646 z m 0.378211,-0.243437 0.148763,-0.07527 0.148762,0.07527 c 0.191864,0.09707 0.311825,0.09764 0.407542,0.0019 0.0704,-0.07041 0.07264,-0.08248 0.05575,-0.301508 l -0.0176,-0.228166 0.11188,-0.09577 c 0.06943,-0.05943 0.124656,-0.138405 0.14555,-0.208143 0.02989,-0.09978 0.02729,-0.120972 -0.02328,-0.189089 -0.07544,-0.101616 -0.168245,-0.14634 -0.305826,-0.147374 -0.145499,-0.0011 -0.168602,-0.01768 -0.226613,-0.162657 -0.05886,-0.147096 -0.188237,-0.261203 -0.296167,-0.261203 -0.107931,0 -0.237312,0.114107 -0.296168,0.261203 -0.05804,0.145064 -0.0812,0.161654 -0.226613,0.162346 -0.12742,6.01e-4 -0.276577,0.07945 -0.326393,0.172533 -0.0519,0.09698 0.01019,0.258835 0.142837,0.372384 l 0.11188,0.09577 -0.01759,0.228166 c -0.01689,0.219024 -0.01466,0.231103 0.05575,0.301508 0.09572,0.09571 0.215677,0.09515 0.407541,-0.0019 z m -0.05946,-0.396701 c -0.03912,-0.03912 -0.01347,-0.109156 0.07247,-0.197825 l 0.09032,-0.09318 h -0.09218 c -0.113053,0 -0.201494,-0.04424 -0.201494,-0.100787 0,-0.06952 0.07255,-0.07615 0.188004,-0.01719 l 0.108709,0.05552 -0.0097,-0.152452 c -0.0089,-0.140873 -0.005,-0.152454 0.05207,-0.152454 0.05706,0 0.06101,0.01158 0.05207,0.152454 l -0.0097,0.152452 0.108709,-0.05552 c 0.115456,-0.05897 0.188004,-0.05233 0.188004,0.01719 0,0.05655 -0.08844,0.100787 -0.201494,0.100787 h -0.09218 l 0.09032,0.09318 c 0.08594,0.08867 0.111597,0.158701 0.07247,0.197825 -0.03253,0.03253 -0.115163,-0.03324 -0.151259,-0.120379 -0.01956,-0.04722 -0.04519,-0.08586 -0.05696,-0.08586 -0.01177,0 -0.0374,0.03863 -0.05696,0.08586 -0.03609,0.08714 -0.11873,0.152907 -0.151258,0.120379 z"
       id="path129383" /><path
       style="display:inline;fill:#000000;stroke-width:0.0211938"
       d="m 20.235455,32.191434 c -0.199347,-0.06051 -0.327602,-0.325535 -0.280094,-0.578779 0.01674,-0.08925 0.0064,-0.114204 -0.09504,-0.229464 -0.271042,-0.307918 -0.142686,-0.683791 0.264634,-0.774945 0.124209,-0.0278 0.168076,-0.05139 0.186716,-0.100416 0.0134,-0.03525 0.07081,-0.115491 0.127575,-0.178324 0.235937,-0.261154 0.58233,-0.189771 0.75622,0.155837 0.03661,0.07276 0.07008,0.09283 0.205271,0.123087 0.400149,0.08955 0.532993,0.461777 0.273146,0.765351 -0.101435,0.118503 -0.105036,0.130158 -0.105551,0.341622 -5.68e-4,0.236391 -0.03537,0.314027 -0.193744,0.432268 -0.106067,0.07919 -0.332441,0.0761 -0.492056,-0.0067 l -0.120098,-0.06232 -0.110441,0.05634 c -0.136952,0.06987 -0.299692,0.09193 -0.416533,0.05646 z m 0.378211,-0.243437 0.148763,-0.07527 0.148762,0.07527 c 0.191864,0.09707 0.311825,0.09764 0.407542,0.0019 0.0704,-0.07041 0.07264,-0.08248 0.05575,-0.301508 l -0.0176,-0.228166 0.11188,-0.09577 c 0.06943,-0.05943 0.124656,-0.138405 0.14555,-0.208143 0.02989,-0.09978 0.02729,-0.120972 -0.02328,-0.189089 -0.07544,-0.101616 -0.168245,-0.14634 -0.305826,-0.147374 -0.145499,-0.0011 -0.168602,-0.01768 -0.226613,-0.162657 -0.05886,-0.147096 -0.188237,-0.261203 -0.296167,-0.261203 -0.107931,0 -0.237312,0.114107 -0.296168,0.261203 -0.05804,0.145064 -0.0812,0.161654 -0.226613,0.162346 -0.12742,6.01e-4 -0.276577,0.07945 -0.326393,0.172533 -0.0519,0.09698 0.01019,0.258835 0.142837,0.372384 l 0.11188,0.09577 -0.01759,0.228166 c -0.01689,0.219024 -0.01466,0.231103 0.05575,0.301508 0.09572,0.09571 0.215677,0.09515 0.407541,-0.0019 z m -0.05946,-0.396701 c -0.03912,-0.03912 -0.01347,-0.109156 0.07247,-0.197825 l 0.09032,-0.09318 h -0.09218 c -0.113053,0 -0.201494,-0.04424 -0.201494,-0.100787 0,-0.06952 0.07255,-0.07615 0.188004,-0.01719 l 0.108709,0.05552 -0.0097,-0.152452 c -0.0089,-0.140873 -0.005,-0.152454 0.05207,-0.152454 0.05706,0 0.06101,0.01158 0.05207,0.152454 l -0.0097,0.152452 0.108709,-0.05552 c 0.115456,-0.05897 0.188004,-0.05233 0.188004,0.01719 0,0.05655 -0.08844,0.100787 -0.201494,0.100787 h -0.09218 l 0.09032,0.09318 c 0.08594,0.08867 0.111597,0.158701 0.07247,0.197825 -0.03253,0.03253 -0.115163,-0.03324 -0.151259,-0.120379 -0.01956,-0.04722 -0.04519,-0.08586 -0.05696,-0.08586 -0.01177,0 -0.0374,0.03863 -0.05696,0.08586 -0.03609,0.08714 -0.11873,0.152907 -0.151258,0.120379 z"
       id="path129387" /></g></svg>
